<svg width="512" height="512" version="1.1" xmlns="http://www.w3.org/2000/svg" desc="Created with imagetracer.js version 1.2.6" ><path fill="rgb(0,0,0)" stroke="rgb(0,0,0)" stroke-width="1" opacity="0" d="M 0 0 L 115 0.5 L 90.5 5 L 72.5 12 Q 50.2 23.2 34 40.5 Q 21 54.5 12 72.5 L 5 90.5 L 0.5 115 L 0 0 Z " /><path fill="rgb(0,0,0)" stroke="rgb(0,0,0)" stroke-width="1" opacity="0" d="M 397.5 0 L 512 0 L 512 114.5 L 511 114.5 L 510 102.5 L 503 79.5 Q 491.5 52.5 471.5 34 Q 457.5 21 439.5 12 L 421.5 5 L 409.5 2 L 397.5 1 L 397.5 0 Z " /><path fill="rgb(0,0,0)" stroke="rgb(0,0,0)" stroke-width="1" opacity="0" d="M 117.5 43 L 394.5 43 Q 430.5 49 449 72.5 Q 458.3 83.2 464 97.5 L 469 117.5 L 469 394.5 Q 462.6 430.1 439.5 449 L 423.5 460 L 408.5 466 L 394.5 469 L 117.5 469 L 103.5 466 L 90.5 461 Q 74.3 452.7 63 439.5 L 51 421.5 L 46 408.5 L 43 394.5 L 43 117.5 L 46 103.5 L 51 90.5 Q 59.3 74.3 72.5 63 L 90.5 51 L 103.5 46 L 117.5 43 Z M 252 128 L 245 131 Q 238 135 235 144 L 235 234 L 234 235 L 144 235 L 139 237 Q 131 242 128 252 Q 127 262 131 268 Q 135 274 144 277 L 234 277 L 235 279 L 235 369 L 238 375 Q 242 382 252 384 Q 262 385 268 381 Q 274 377 277 369 L 277 279 L 279 277 L 369 277 L 375 274 Q 382 270 384 261 Q 385 250 381 245 Q 377 238 369 235 L 279 235 L 277 234 L 277 144 L 274 138 Q 269 127 252 128 Z " /><path fill="rgb(0,0,0)" stroke="rgb(0,0,0)" stroke-width="1" opacity="0" d="M 0.5 397 L 5 421.5 L 12 439.5 Q 22.8 461.2 39.5 477 Q 56.1 493.4 79.5 503 L 102.5 510 L 115 511.5 L 0 512 L 0.5 397 Z " /><path fill="rgb(0,0,0)" stroke="rgb(0,0,0)" stroke-width="1" opacity="0" d="M 511.5 397 L 512 512 L 397 511.5 L 409.5 510 L 432.5 503 Q 459.5 491.5 478 471.5 Q 493.5 455 503 432.5 L 510 409.5 L 511.5 397 Z " /><path fill="rgb(0,0,0)" stroke="rgb(0,0,0)" stroke-width="1" opacity="0.7372549019607844" d="M 115.5 0 L 124 0.5 L 115.5 1 L 115.5 0 Z " /><path fill="rgb(0,0,0)" stroke="rgb(0,0,0)" stroke-width="1" opacity="0.7372549019607844" d="M 388.5 0 L 397 0.5 L 388.5 1 L 388.5 0 Z " /><path fill="rgb(0,0,0)" stroke="rgb(0,0,0)" stroke-width="1" opacity="0.7372549019607844" d="M 108.5 1 L 111 1.5 L 108.5 2 L 108.5 1 Z " /><path fill="rgb(0,0,0)" stroke="rgb(0,0,0)" stroke-width="1" opacity="0.7372549019607844" d="M 401.5 1 L 404 1.5 L 401.5 2 L 401.5 1 Z " /><path fill="rgb(0,0,0)" stroke="rgb(0,0,0)" stroke-width="1" opacity="0.7372549019607844" d="M 102.5 2 L 105 2.5 L 102.5 3 L 102.5 2 Z " /><path fill="rgb(0,0,0)" stroke="rgb(0,0,0)" stroke-width="1" opacity="0.7372549019607844" d="M 407.5 2 L 410 2.5 L 407.5 3 L 407.5 2 Z " /><path fill="rgb(0,0,0)" stroke="rgb(0,0,0)" stroke-width="1" opacity="0.7372549019607844" d="M 72.5 12 L 74 12.5 L 71.5 14 L 72.5 12 Z " /><path fill="rgb(0,0,0)" stroke="rgb(0,0,0)" stroke-width="1" opacity="0.7372549019607844" d="M 441.5 13 L 442.5 15 L 441.5 13 Z " /><path fill="rgb(0,0,0)" stroke="rgb(0,0,0)" stroke-width="1" opacity="0.7372549019607844" d="M 61.5 18 L 60.5 20 L 61.5 18 Z " /><path fill="rgb(0,0,0)" stroke="rgb(0,0,0)" stroke-width="1" opacity="0.7372549019607844" d="M 450.5 18 L 451.5 20 L 450.5 18 Z " /><path fill="rgb(0,0,0)" stroke="rgb(0,0,0)" stroke-width="1" opacity="0.7372549019607844" d="M 58.5 20 L 57.5 22 L 58.5 20 Z " /><path fill="rgb(0,0,0)" stroke="rgb(0,0,0)" stroke-width="1" opacity="0.7372549019607844" d="M 453.5 20 L 454.5 22 L 453.5 20 Z " /><path fill="rgb(0,0,0)" stroke="rgb(0,0,0)" stroke-width="1" opacity="0.7372549019607844" d="M 55.5 22 L 54.5 24 L 55.5 22 Z " /><path fill="rgb(0,0,0)" stroke="rgb(0,0,0)" stroke-width="1" opacity="0.7372549019607844" d="M 456.5 22 L 457.5 24 L 456.5 22 Z " /><path fill="rgb(0,0,0)" stroke="rgb(0,0,0)" stroke-width="1" opacity="0.7372549019607844" d="M 51.5 25 L 50.5 27 L 51.5 25 Z " /><path fill="rgb(0,0,0)" stroke="rgb(0,0,0)" stroke-width="1" opacity="0.7372549019607844" d="M 460.5 25 L 461.5 27 L 460.5 25 Z " /><path fill="rgb(0,0,0)" stroke="rgb(0,0,0)" stroke-width="1" opacity="0.7372549019607844" d="M 47.5 28 L 45.5 31 L 47.5 28 Z " /><path fill="rgb(0,0,0)" stroke="rgb(0,0,0)" stroke-width="1" opacity="0.7372549019607844" d="M 464.5 28 L 466.5 31 L 464.5 28 Z " /><path fill="rgb(0,0,0)" stroke="rgb(0,0,0)" stroke-width="1" opacity="0.7372549019607844" d="M 40.5 34 L 34.5 41 L 40.5 34 Z " /><path fill="rgb(0,0,0)" stroke="rgb(0,0,0)" stroke-width="1" opacity="0.7372549019607844" d="M 471.5 34 L 477.5 41 L 471.5 34 Z " /><path fill="rgb(0,0,0)" stroke="rgb(0,0,0)" stroke-width="1" opacity="0.7372549019607844" d="M 122.5 42 L 390 42.5 L 122.5 43 L 122.5 42 Z " /><path fill="rgb(0,0,0)" stroke="rgb(0,0,0)" stroke-width="1" opacity="0.7372549019607844" d="M 114.5 43 L 117 43.5 L 114.5 44 L 114.5 43 Z " /><path fill="rgb(0,0,0)" stroke="rgb(0,0,0)" stroke-width="1" opacity="0.7372549019607844" d="M 395.5 43 L 398 43.5 L 395.5 44 L 395.5 43 Z " /><path fill="rgb(0,0,0)" stroke="rgb(0,0,0)" stroke-width="1" opacity="0.7372549019607844" d="M 30.5 45 L 28.5 48 L 30.5 45 Z " /><path fill="rgb(0,0,0)" stroke="rgb(0,0,0)" stroke-width="1" opacity="0.7372549019607844" d="M 481.5 45 L 483.5 48 L 481.5 45 Z " /><path fill="rgb(0,0,0)" stroke="rgb(0,0,0)" stroke-width="1" opacity="0.7372549019607844" d="M 26.5 50 L 25.5 52 L 26.5 50 Z " /><path fill="rgb(0,0,0)" stroke="rgb(0,0,0)" stroke-width="1" opacity="0.7372549019607844" d="M 485.5 50 L 486.5 52 L 485.5 50 Z " /><path fill="rgb(0,0,0)" stroke="rgb(0,0,0)" stroke-width="1" opacity="0.7372549019607844" d="M 89.5 51 L 88.5 53 L 89.5 51 Z " /><path fill="rgb(0,0,0)" stroke="rgb(0,0,0)" stroke-width="1" opacity="0.7372549019607844" d="M 424.5 52 L 425.5 54 L 424.5 52 Z " /><path fill="rgb(0,0,0)" stroke="rgb(0,0,0)" stroke-width="1" opacity="0.7372549019607844" d="M 23.5 54 L 22.5 56 L 23.5 54 Z " /><path fill="rgb(0,0,0)" stroke="rgb(0,0,0)" stroke-width="1" opacity="0.7372549019607844" d="M 488.5 54 L 489.5 56 L 488.5 54 Z " /><path fill="rgb(0,0,0)" stroke="rgb(0,0,0)" stroke-width="1" opacity="0.7372549019607844" d="M 82.5 55 L 81.5 57 L 82.5 55 Z " /><path fill="rgb(0,0,0)" stroke="rgb(0,0,0)" stroke-width="1" opacity="0.7372549019607844" d="M 429.5 55 L 430.5 57 L 429.5 55 Z " /><path fill="rgb(0,0,0)" stroke="rgb(0,0,0)" stroke-width="1" opacity="0.7372549019607844" d="M 21.5 57 L 20.5 59 L 21.5 57 Z " /><path fill="rgb(0,0,0)" stroke="rgb(0,0,0)" stroke-width="1" opacity="0.7372549019607844" d="M 79.5 57 L 78.5 59 L 79.5 57 Z " /><path fill="rgb(0,0,0)" stroke="rgb(0,0,0)" stroke-width="1" opacity="0.7372549019607844" d="M 432.5 57 L 433.5 59 L 432.5 57 Z " /><path fill="rgb(0,0,0)" stroke="rgb(0,0,0)" stroke-width="1" opacity="0.7372549019607844" d="M 490.5 57 L 491.5 59 L 490.5 57 Z " /><path fill="rgb(0,0,0)" stroke="rgb(0,0,0)" stroke-width="1" opacity="0.7372549019607844" d="M 19.5 60 L 18.5 62 L 19.5 60 Z " /><path fill="rgb(0,0,0)" stroke="rgb(0,0,0)" stroke-width="1" opacity="0.7372549019607844" d="M 75.5 60 L 73.5 63 L 75.5 60 Z " /><path fill="rgb(0,0,0)" stroke="rgb(0,0,0)" stroke-width="1" opacity="0.7372549019607844" d="M 436.5 60 L 438.5 63 L 436.5 60 Z " /><path fill="rgb(0,0,0)" stroke="rgb(0,0,0)" stroke-width="1" opacity="0.7372549019607844" d="M 492.5 60 L 493.5 62 L 492.5 60 Z " /><path fill="rgb(0,0,0)" stroke="rgb(0,0,0)" stroke-width="1" opacity="0.7372549019607844" d="M 69.5 65 L 65.5 70 L 69.5 65 Z " /><path fill="rgb(0,0,0)" stroke="rgb(0,0,0)" stroke-width="1" opacity="0.7372549019607844" d="M 442.5 65 L 446.5 70 L 442.5 65 Z " /><path fill="rgb(0,0,0)" stroke="rgb(0,0,0)" stroke-width="1" opacity="0.7372549019607844" d="M 13.5 71 L 13 72.5 L 12.5 74 L 12 72.5 L 13.5 71 Z " /><path fill="rgb(0,0,0)" stroke="rgb(0,0,0)" stroke-width="1" opacity="0.7372549019607844" d="M 62.5 73 L 60.5 76 L 62.5 73 Z " /><path fill="rgb(0,0,0)" stroke="rgb(0,0,0)" stroke-width="1" opacity="0.7372549019607844" d="M 449.5 73 L 451.5 76 L 449.5 73 Z " /><path fill="rgb(0,0,0)" stroke="rgb(0,0,0)" stroke-width="1" opacity="0.7372549019607844" d="M 58.5 78 L 57.5 80 L 58.5 78 Z " /><path fill="rgb(0,0,0)" stroke="rgb(0,0,0)" stroke-width="1" opacity="0.7372549019607844" d="M 453.5 78 L 454.5 80 L 453.5 78 Z " /><path fill="rgb(0,0,0)" stroke="rgb(0,0,0)" stroke-width="1" opacity="0.7372549019607844" d="M 56.5 81 L 55.5 83 L 56.5 81 Z " /><path fill="rgb(0,0,0)" stroke="rgb(0,0,0)" stroke-width="1" opacity="0.7372549019607844" d="M 455.5 81 L 456.5 83 L 455.5 81 Z " /><path fill="rgb(0,0,0)" stroke="rgb(0,0,0)" stroke-width="1" opacity="0.7372549019607844" d="M 52.5 88 L 51.5 90 L 52.5 88 Z " /><path fill="rgb(0,0,0)" stroke="rgb(0,0,0)" stroke-width="1" opacity="0.7372549019607844" d="M 459.5 88 L 462 92.5 L 461 92.5 L 459.5 88 Z " /><path fill="rgb(0,0,0)" stroke="rgb(0,0,0)" stroke-width="1" opacity="0.7372549019607844" d="M 2.5 102 L 3 104.5 L 2 104.5 L 2.5 102 Z " /><path fill="rgb(0,0,0)" stroke="rgb(0,0,0)" stroke-width="1" opacity="0.7372549019607844" d="M 509.5 102 L 510 104.5 L 509 104.5 L 509.5 102 Z " /><path fill="rgb(0,0,0)" stroke="rgb(0,0,0)" stroke-width="1" opacity="0.7372549019607844" d="M 1.5 108 L 2 110.5 L 1 110.5 L 1.5 108 Z " /><path fill="rgb(0,0,0)" stroke="rgb(0,0,0)" stroke-width="1" opacity="0.7372549019607844" d="M 510.5 108 L 511 110.5 L 510 110.5 L 510.5 108 Z " /><path fill="rgb(0,0,0)" stroke="rgb(0,0,0)" stroke-width="1" opacity="0.7372549019607844" d="M 43.5 114 L 44 116.5 L 43 116.5 L 43.5 114 Z " /><path fill="rgb(0,0,0)" stroke="rgb(0,0,0)" stroke-width="1" opacity="0.7372549019607844" d="M 468.5 114 L 469 116.5 L 468 116.5 L 468.5 114 Z " /><path fill="rgb(0,0,0)" stroke="rgb(0,0,0)" stroke-width="1" opacity="0.7372549019607844" d="M 0.5 115 L 1 122.5 L 0 122.5 L 0.5 115 Z " /><path fill="rgb(0,0,0)" stroke="rgb(0,0,0)" stroke-width="1" opacity="0.7372549019607844" d="M 511.5 115 L 512 122.5 L 511 122.5 L 511.5 115 Z " /><path fill="rgb(0,0,0)" stroke="rgb(0,0,0)" stroke-width="1" opacity="0.7372549019607844" d="M 42.5 122 L 43 389.5 L 42 389.5 L 42.5 122 Z " /><path fill="rgb(0,0,0)" stroke="rgb(0,0,0)" stroke-width="1" opacity="0.7372549019607844" d="M 469.5 123 L 470 388.5 L 469 388.5 L 469.5 123 Z " /><path fill="rgb(0,0,0)" stroke="rgb(0,0,0)" stroke-width="1" opacity="0.7372549019607844" d="M 251.5 128 L 254 128.5 L 251.5 129 L 251.5 128 Z " /><path fill="rgb(0,0,0)" stroke="rgb(0,0,0)" stroke-width="1" opacity="0.7372549019607844" d="M 258.5 128 L 261 128.5 L 258.5 129 L 258.5 128 Z " /><path fill="rgb(0,0,0)" stroke="rgb(0,0,0)" stroke-width="1" opacity="0.7372549019607844" d="M 267.5 131 L 268.5 133 L 267.5 131 Z " /><path fill="rgb(0,0,0)" stroke="rgb(0,0,0)" stroke-width="1" opacity="0.7372549019607844" d="M 138.5 237 L 137.5 239 L 138.5 237 Z " /><path fill="rgb(0,0,0)" stroke="rgb(0,0,0)" stroke-width="1" opacity="0.7372549019607844" d="M 379.5 243 L 380.5 245 L 379.5 243 Z " /><path fill="rgb(0,0,0)" stroke="rgb(0,0,0)" stroke-width="1" opacity="0.7372549019607844" d="M 128.5 251 L 129 253.5 L 128 253.5 L 128.5 251 Z " /><path fill="rgb(0,0,0)" stroke="rgb(0,0,0)" stroke-width="1" opacity="0.7372549019607844" d="M 383.5 251 L 384 253.5 L 383 253.5 L 383.5 251 Z " /><path fill="rgb(0,0,0)" stroke="rgb(0,0,0)" stroke-width="1" opacity="0.7372549019607844" d="M 128.5 258 L 129 260.5 L 128 260.5 L 128.5 258 Z " /><path fill="rgb(0,0,0)" stroke="rgb(0,0,0)" stroke-width="1" opacity="0.7372549019607844" d="M 383.5 258 L 384 260.5 L 383 260.5 L 383.5 258 Z " /><path fill="rgb(0,0,0)" stroke="rgb(0,0,0)" stroke-width="1" opacity="0.7372549019607844" d="M 131.5 267 L 132.5 269 L 131.5 267 Z " /><path fill="rgb(0,0,0)" stroke="rgb(0,0,0)" stroke-width="1" opacity="0.7372549019607844" d="M 380.5 267 L 379.5 269 L 380.5 267 Z " /><path fill="rgb(0,0,0)" stroke="rgb(0,0,0)" stroke-width="1" opacity="0.7372549019607844" d="M 243.5 379 L 244.5 381 L 243.5 379 Z " /><path fill="rgb(0,0,0)" stroke="rgb(0,0,0)" stroke-width="1" opacity="0.7372549019607844" d="M 268.5 379 L 267.5 381 L 268.5 379 Z " /><path fill="rgb(0,0,0)" stroke="rgb(0,0,0)" stroke-width="1" opacity="0.7372549019607844" d="M 251.5 383 L 254 383.5 L 251.5 384 L 251.5 383 Z " /><path fill="rgb(0,0,0)" stroke="rgb(0,0,0)" stroke-width="1" opacity="0.7372549019607844" d="M 258.5 383 L 261 383.5 L 258.5 384 L 258.5 383 Z " /><path fill="rgb(0,0,0)" stroke="rgb(0,0,0)" stroke-width="1" opacity="0.7372549019607844" d="M 0.5 389 L 1 396.5 L 0 396.5 L 0.5 389 Z " /><path fill="rgb(0,0,0)" stroke="rgb(0,0,0)" stroke-width="1" opacity="0.7372549019607844" d="M 511.5 389 L 512 396.5 L 511 396.5 L 511.5 389 Z " /><path fill="rgb(0,0,0)" stroke="rgb(0,0,0)" stroke-width="1" opacity="0.7372549019607844" d="M 43.5 395 L 44 397.5 L 43 397.5 L 43.5 395 Z " /><path fill="rgb(0,0,0)" stroke="rgb(0,0,0)" stroke-width="1" opacity="0.7372549019607844" d="M 468.5 395 L 469 397.5 L 468 397.5 L 468.5 395 Z " /><path fill="rgb(0,0,0)" stroke="rgb(0,0,0)" stroke-width="1" opacity="0.7372549019607844" d="M 1.5 401 L 2 403.5 L 1 403.5 L 1.5 401 Z " /><path fill="rgb(0,0,0)" stroke="rgb(0,0,0)" stroke-width="1" opacity="0.7372549019607844" d="M 510.5 401 L 511 403.5 L 510 403.5 L 510.5 401 Z " /><path fill="rgb(0,0,0)" stroke="rgb(0,0,0)" stroke-width="1" opacity="0.7372549019607844" d="M 2.5 407 L 3 409.5 L 2 409.5 L 2.5 407 Z " /><path fill="rgb(0,0,0)" stroke="rgb(0,0,0)" stroke-width="1" opacity="0.7372549019607844" d="M 509.5 407 L 510 409.5 L 509 409.5 L 509.5 407 Z " /><path fill="rgb(0,0,0)" stroke="rgb(0,0,0)" stroke-width="1" opacity="0.7372549019607844" d="M 51.5 422 L 52.5 424 L 51.5 422 Z " /><path fill="rgb(0,0,0)" stroke="rgb(0,0,0)" stroke-width="1" opacity="0.7372549019607844" d="M 55.5 429 L 56.5 431 L 55.5 429 Z " /><path fill="rgb(0,0,0)" stroke="rgb(0,0,0)" stroke-width="1" opacity="0.7372549019607844" d="M 456.5 429 L 455.5 431 L 456.5 429 Z " /><path fill="rgb(0,0,0)" stroke="rgb(0,0,0)" stroke-width="1" opacity="0.7372549019607844" d="M 57.5 432 L 58.5 434 L 57.5 432 Z " /><path fill="rgb(0,0,0)" stroke="rgb(0,0,0)" stroke-width="1" opacity="0.7372549019607844" d="M 454.5 432 L 453.5 434 L 454.5 432 Z " /><path fill="rgb(0,0,0)" stroke="rgb(0,0,0)" stroke-width="1" opacity="0.7372549019607844" d="M 60.5 436 L 62.5 439 L 60.5 436 Z " /><path fill="rgb(0,0,0)" stroke="rgb(0,0,0)" stroke-width="1" opacity="0.7372549019607844" d="M 451.5 436 L 449.5 439 L 451.5 436 Z " /><path fill="rgb(0,0,0)" stroke="rgb(0,0,0)" stroke-width="1" opacity="0.7372549019607844" d="M 12.5 438 L 14 440.5 L 12 439.5 L 12.5 438 Z " /><path fill="rgb(0,0,0)" stroke="rgb(0,0,0)" stroke-width="1" opacity="0.7372549019607844" d="M 65.5 442 L 68.5 446 L 65.5 442 Z " /><path fill="rgb(0,0,0)" stroke="rgb(0,0,0)" stroke-width="1" opacity="0.7372549019607844" d="M 446.5 442 L 442.5 447 L 446.5 442 Z " /><path fill="rgb(0,0,0)" stroke="rgb(0,0,0)" stroke-width="1" opacity="0.7372549019607844" d="M 73.5 449 L 75.5 452 L 73.5 449 Z " /><path fill="rgb(0,0,0)" stroke="rgb(0,0,0)" stroke-width="1" opacity="0.7372549019607844" d="M 438.5 449 L 436.5 452 L 438.5 449 Z " /><path fill="rgb(0,0,0)" stroke="rgb(0,0,0)" stroke-width="1" opacity="0.7372549019607844" d="M 18.5 450 L 19.5 452 L 18.5 450 Z " /><path fill="rgb(0,0,0)" stroke="rgb(0,0,0)" stroke-width="1" opacity="0.7372549019607844" d="M 20.5 453 L 21.5 455 L 20.5 453 Z " /><path fill="rgb(0,0,0)" stroke="rgb(0,0,0)" stroke-width="1" opacity="0.7372549019607844" d="M 78.5 453 L 79.5 455 L 78.5 453 Z " /><path fill="rgb(0,0,0)" stroke="rgb(0,0,0)" stroke-width="1" opacity="0.7372549019607844" d="M 433.5 453 L 432.5 455 L 433.5 453 Z " /><path fill="rgb(0,0,0)" stroke="rgb(0,0,0)" stroke-width="1" opacity="0.7372549019607844" d="M 491.5 453 L 490.5 455 L 491.5 453 Z " /><path fill="rgb(0,0,0)" stroke="rgb(0,0,0)" stroke-width="1" opacity="0.7372549019607844" d="M 81.5 455 L 82.5 457 L 81.5 455 Z " /><path fill="rgb(0,0,0)" stroke="rgb(0,0,0)" stroke-width="1" opacity="0.7372549019607844" d="M 430.5 455 L 429.5 457 L 430.5 455 Z " /><path fill="rgb(0,0,0)" stroke="rgb(0,0,0)" stroke-width="1" opacity="0.7372549019607844" d="M 22.5 456 L 23.5 458 L 22.5 456 Z " /><path fill="rgb(0,0,0)" stroke="rgb(0,0,0)" stroke-width="1" opacity="0.7372549019607844" d="M 489.5 456 L 488.5 458 L 489.5 456 Z " /><path fill="rgb(0,0,0)" stroke="rgb(0,0,0)" stroke-width="1" opacity="0.7372549019607844" d="M 425.5 458 L 424.5 460 L 425.5 458 Z " /><path fill="rgb(0,0,0)" stroke="rgb(0,0,0)" stroke-width="1" opacity="0.7372549019607844" d="M 88.5 459 L 89.5 461 L 88.5 459 Z " /><path fill="rgb(0,0,0)" stroke="rgb(0,0,0)" stroke-width="1" opacity="0.7372549019607844" d="M 25.5 460 L 26.5 462 L 25.5 460 Z " /><path fill="rgb(0,0,0)" stroke="rgb(0,0,0)" stroke-width="1" opacity="0.7372549019607844" d="M 486.5 460 L 485.5 462 L 486.5 460 Z " /><path fill="rgb(0,0,0)" stroke="rgb(0,0,0)" stroke-width="1" opacity="0.7372549019607844" d="M 28.5 464 L 30.5 467 L 28.5 464 Z " /><path fill="rgb(0,0,0)" stroke="rgb(0,0,0)" stroke-width="1" opacity="0.7372549019607844" d="M 483.5 464 L 480.5 468 L 483.5 464 Z " /><path fill="rgb(0,0,0)" stroke="rgb(0,0,0)" stroke-width="1" opacity="0.7372549019607844" d="M 114.5 468 L 117 468.5 L 114.5 469 L 114.5 468 Z " /><path fill="rgb(0,0,0)" stroke="rgb(0,0,0)" stroke-width="1" opacity="0.7372549019607844" d="M 395.5 468 L 398 468.5 L 395.5 469 L 395.5 468 Z " /><path fill="rgb(0,0,0)" stroke="rgb(0,0,0)" stroke-width="1" opacity="0.7372549019607844" d="M 123.5 469 L 389 469.5 L 123.5 470 L 123.5 469 Z " /><path fill="rgb(0,0,0)" stroke="rgb(0,0,0)" stroke-width="1" opacity="0.7372549019607844" d="M 34.5 471 L 39.5 477 L 34.5 471 Z " /><path fill="rgb(0,0,0)" stroke="rgb(0,0,0)" stroke-width="1" opacity="0.7372549019607844" d="M 477.5 471 L 471.5 478 L 477.5 471 Z " /><path fill="rgb(0,0,0)" stroke="rgb(0,0,0)" stroke-width="1" opacity="0.7372549019607844" d="M 45.5 481 L 47.5 484 L 45.5 481 Z " /><path fill="rgb(0,0,0)" stroke="rgb(0,0,0)" stroke-width="1" opacity="0.7372549019607844" d="M 466.5 481 L 464.5 484 L 466.5 481 Z " /><path fill="rgb(0,0,0)" stroke="rgb(0,0,0)" stroke-width="1" opacity="0.7372549019607844" d="M 50.5 485 L 51.5 487 L 50.5 485 Z " /><path fill="rgb(0,0,0)" stroke="rgb(0,0,0)" stroke-width="1" opacity="0.7372549019607844" d="M 461.5 485 L 460.5 487 L 461.5 485 Z " /><path fill="rgb(0,0,0)" stroke="rgb(0,0,0)" stroke-width="1" opacity="0.7372549019607844" d="M 54.5 488 L 55.5 490 L 54.5 488 Z " /><path fill="rgb(0,0,0)" stroke="rgb(0,0,0)" stroke-width="1" opacity="0.7372549019607844" d="M 457.5 488 L 456.5 490 L 457.5 488 Z " /><path fill="rgb(0,0,0)" stroke="rgb(0,0,0)" stroke-width="1" opacity="0.7372549019607844" d="M 57.5 490 L 58.5 492 L 57.5 490 Z " /><path fill="rgb(0,0,0)" stroke="rgb(0,0,0)" stroke-width="1" opacity="0.7372549019607844" d="M 454.5 490 L 453.5 492 L 454.5 490 Z " /><path fill="rgb(0,0,0)" stroke="rgb(0,0,0)" stroke-width="1" opacity="0.7372549019607844" d="M 60.5 492 L 61.5 494 L 60.5 492 Z " /><path fill="rgb(0,0,0)" stroke="rgb(0,0,0)" stroke-width="1" opacity="0.7372549019607844" d="M 102.5 509 L 105 509.5 L 102.5 510 L 102.5 509 Z " /><path fill="rgb(0,0,0)" stroke="rgb(0,0,0)" stroke-width="1" opacity="0.7372549019607844" d="M 407.5 509 L 410 509.5 L 407.5 510 L 407.5 509 Z " /><path fill="rgb(0,0,0)" stroke="rgb(0,0,0)" stroke-width="1" opacity="0.7372549019607844" d="M 108.5 510 L 111 510.5 L 108.5 511 L 108.5 510 Z " /><path fill="rgb(0,0,0)" stroke="rgb(0,0,0)" stroke-width="1" opacity="0.7372549019607844" d="M 401.5 510 L 404 510.5 L 401.5 511 L 401.5 510 Z " /><path fill="rgb(0,0,0)" stroke="rgb(0,0,0)" stroke-width="1" opacity="0.7372549019607844" d="M 115.5 511 L 124 511.5 L 115.5 512 L 115.5 511 Z " /><path fill="rgb(0,0,0)" stroke="rgb(0,0,0)" stroke-width="1" opacity="0.7372549019607844" d="M 388.5 511 L 397 511.5 L 388.5 512 L 388.5 511 Z " /><path fill="rgb(0,0,0)" stroke="rgb(0,0,0)" stroke-width="1" opacity="1" d="M 124.5 0 L 387.5 0 L 388.5 1 L 400.5 1 L 419.5 5 L 440.5 13 Q 464.3 25.3 481 44.5 Q 493.9 59.1 502 78.5 L 507 92.5 L 511 111.5 L 511 122.5 L 512 123.5 L 512 388.5 L 511 389.5 L 511 400.5 L 509 411.5 L 502 433.5 Q 489.6 462.1 467.5 481 Q 452.9 493.9 433.5 502 L 419.5 507 L 400.5 511 L 388.5 511 L 387.5 512 L 124.5 512 L 123.5 511 L 111.5 511 L 100.5 509 L 78.5 502 Q 49.9 489.6 31 467.5 Q 18.1 452.9 10 433.5 L 5 419.5 L 1 400.5 L 1 389.5 L 0 388.5 L 0 123.5 L 1 122.5 L 1 111.5 L 3 100.5 L 10 78.5 Q 22.4 49.9 44.5 31 Q 61 16.5 83.5 8 L 105.5 2 L 123.5 1 L 124.5 0 Z M 123 42 L 106 45 L 92 50 L 70 65 Q 58 76 50 92 L 45 106 L 42 123 L 42 390 L 45 407 L 50 421 L 65 443 Q 75 454 90 461 L 106 467 L 115 469 L 123 469 L 124 470 L 389 470 L 390 469 L 403 468 L 416 464 Q 431 458 443 447 Q 456 434 464 416 L 468 403 L 469 390 L 470 389 L 470 124 L 469 123 L 469 115 L 467 106 L 462 92 L 447 70 Q 436 58 421 50 L 407 45 L 390 42 L 123 42 Z " /><path fill="rgb(0,0,0)" stroke="rgb(0,0,0)" stroke-width="1" opacity="1" d="M 254.5 128 L 262.5 129 L 273 136.5 L 277 145.5 L 277 235 L 366.5 235 Q 374.8 236.7 379 242.5 Q 384 247.5 384 257.5 Q 382.3 267.8 375.5 273 L 366.5 277 L 277 277 L 277 366.5 Q 275.3 374.8 269.5 379 Q 264.5 384 254.5 384 Q 244.3 382.3 239 375.5 L 235 366.5 L 235 277 L 145.5 277 Q 137.2 275.3 133 269.5 Q 128 264.5 128 254.5 L 132 243.5 L 136.5 239 L 145.5 235 L 235 235 L 235 145.5 Q 236.9 136.4 243.5 132 L 254.5 128 Z " /></svg>