<svg width="512" height="512" version="1.1" xmlns="http://www.w3.org/2000/svg" desc="Created with imagetracer.js version 1.2.6" ><path fill="rgb(0,0,0)" stroke="rgb(0,0,0)" stroke-width="1" opacity="0.7803921568627451" d="M 245.5 41 L 250 41.5 L 245.5 42 L 245.5 41 Z " /><path fill="rgb(0,0,0)" stroke="rgb(0,0,0)" stroke-width="1" opacity="0.7803921568627451" d="M 262.5 41 L 267 41.5 L 262.5 42 L 262.5 41 Z " /><path fill="rgb(0,0,0)" stroke="rgb(0,0,0)" stroke-width="1" opacity="0.7803921568627451" d="M 238.5 42 L 241 42.5 L 238.5 43 L 238.5 42 Z " /><path fill="rgb(0,0,0)" stroke="rgb(0,0,0)" stroke-width="1" opacity="0.7803921568627451" d="M 271.5 42 L 274 42.5 L 271.5 43 L 271.5 42 Z " /><path fill="rgb(0,0,0)" stroke="rgb(0,0,0)" stroke-width="1" opacity="0.7803921568627451" d="M 210.5 51 L 212 51.5 L 209.5 53 L 210.5 51 Z " /><path fill="rgb(0,0,0)" stroke="rgb(0,0,0)" stroke-width="1" opacity="0.7803921568627451" d="M 302.5 52 L 305 53.5 L 303.5 53 L 302.5 52 Z " /><path fill="rgb(0,0,0)" stroke="rgb(0,0,0)" stroke-width="1" opacity="0.7803921568627451" d="M 197.5 59 L 196.5 61 L 197.5 59 Z " /><path fill="rgb(0,0,0)" stroke="rgb(0,0,0)" stroke-width="1" opacity="0.7803921568627451" d="M 194.5 61 L 192.5 64 L 194.5 61 Z " /><path fill="rgb(0,0,0)" stroke="rgb(0,0,0)" stroke-width="1" opacity="0.7803921568627451" d="M 317.5 61 L 319.5 64 L 317.5 61 Z " /><path fill="rgb(0,0,0)" stroke="rgb(0,0,0)" stroke-width="1" opacity="0.7803921568627451" d="M 189.5 65 L 178.5 77 L 189.5 65 Z " /><path fill="rgb(0,0,0)" stroke="rgb(0,0,0)" stroke-width="1" opacity="0.7803921568627451" d="M 322.5 65 L 334.5 78 L 322.5 65 Z " /><path fill="rgb(0,0,0)" stroke="rgb(0,0,0)" stroke-width="1" opacity="0.7803921568627451" d="M 175.5 80 L 174.5 82 L 175.5 80 Z " /><path fill="rgb(0,0,0)" stroke="rgb(0,0,0)" stroke-width="1" opacity="0.7803921568627451" d="M 336.5 80 L 337.5 82 L 336.5 80 Z " /><path fill="rgb(0,0,0)" stroke="rgb(0,0,0)" stroke-width="1" opacity="0.7803921568627451" d="M 172.5 84 L 171.5 86 L 172.5 84 Z " /><path fill="rgb(0,0,0)" stroke="rgb(0,0,0)" stroke-width="1" opacity="0.7803921568627451" d="M 339.5 84 L 340.5 86 L 339.5 84 Z " /><path fill="rgb(0,0,0)" stroke="rgb(0,0,0)" stroke-width="1" opacity="0.7803921568627451" d="M 170.5 87 L 169.5 89 L 170.5 87 Z " /><path fill="rgb(0,0,0)" stroke="rgb(0,0,0)" stroke-width="1" opacity="0.7803921568627451" d="M 341.5 87 L 342.5 89 L 341.5 87 Z " /><path fill="rgb(0,0,0)" stroke="rgb(0,0,0)" stroke-width="1" opacity="0.7803921568627451" d="M 167.5 92 L 166.5 94 L 167.5 92 Z " /><path fill="rgb(0,0,0)" stroke="rgb(0,0,0)" stroke-width="1" opacity="0.7803921568627451" d="M 344.5 92 L 345.5 94 L 344.5 92 Z " /><path fill="rgb(0,0,0)" stroke="rgb(0,0,0)" stroke-width="1" opacity="0.7803921568627451" d="M 155.5 123 L 156 125.5 L 155 125.5 L 155.5 123 Z " /><path fill="rgb(0,0,0)" stroke="rgb(0,0,0)" stroke-width="1" opacity="0.7803921568627451" d="M 356.5 123 L 357 125.5 L 356 125.5 L 356.5 123 Z " /><path fill="rgb(0,0,0)" stroke="rgb(0,0,0)" stroke-width="1" opacity="0.7803921568627451" d="M 154.5 129 L 155 132.5 L 154 132.5 L 154.5 129 Z " /><path fill="rgb(0,0,0)" stroke="rgb(0,0,0)" stroke-width="1" opacity="0.7803921568627451" d="M 357.5 129 L 358 132.5 L 357 132.5 L 357.5 129 Z " /><path fill="rgb(0,0,0)" stroke="rgb(0,0,0)" stroke-width="1" opacity="0.7803921568627451" d="M 357.5 153 L 358 157.5 L 357 157.5 L 357.5 153 Z " /><path fill="rgb(0,0,0)" stroke="rgb(0,0,0)" stroke-width="1" opacity="0.7803921568627451" d="M 154.5 154 L 155 157.5 L 154 157.5 L 154.5 154 Z " /><path fill="rgb(0,0,0)" stroke="rgb(0,0,0)" stroke-width="1" opacity="0.7803921568627451" d="M 155.5 161 L 156 163.5 L 155 163.5 L 155.5 161 Z " /><path fill="rgb(0,0,0)" stroke="rgb(0,0,0)" stroke-width="1" opacity="0.7803921568627451" d="M 356.5 161 L 357 163.5 L 356 163.5 L 356.5 161 Z " /><path fill="rgb(0,0,0)" stroke="rgb(0,0,0)" stroke-width="1" opacity="0.7803921568627451" d="M 163.5 186 L 167 192.5 L 165 191.5 L 163.5 186 Z " /><path fill="rgb(0,0,0)" stroke="rgb(0,0,0)" stroke-width="1" opacity="0.7803921568627451" d="M 348.5 186 L 349 187.5 L 346.5 191 L 347 189.5 L 348.5 186 Z " /><path fill="rgb(0,0,0)" stroke="rgb(0,0,0)" stroke-width="1" opacity="0.7803921568627451" d="M 168.5 196 L 169.5 198 L 168.5 196 Z " /><path fill="rgb(0,0,0)" stroke="rgb(0,0,0)" stroke-width="1" opacity="0.7803921568627451" d="M 343.5 196 L 342.5 198 L 343.5 196 Z " /><path fill="rgb(0,0,0)" stroke="rgb(0,0,0)" stroke-width="1" opacity="0.7803921568627451" d="M 172.5 202 L 173.5 204 L 172.5 202 Z " /><path fill="rgb(0,0,0)" stroke="rgb(0,0,0)" stroke-width="1" opacity="0.7803921568627451" d="M 339.5 202 L 338.5 204 L 339.5 202 Z " /><path fill="rgb(0,0,0)" stroke="rgb(0,0,0)" stroke-width="1" opacity="0.7803921568627451" d="M 175.5 206 L 176.5 208 L 175.5 206 Z " /><path fill="rgb(0,0,0)" stroke="rgb(0,0,0)" stroke-width="1" opacity="0.7803921568627451" d="M 336.5 206 L 335.5 208 L 336.5 206 Z " /><path fill="rgb(0,0,0)" stroke="rgb(0,0,0)" stroke-width="1" opacity="0.7803921568627451" d="M 179.5 211 L 187.5 220 L 179.5 211 Z " /><path fill="rgb(0,0,0)" stroke="rgb(0,0,0)" stroke-width="1" opacity="0.7803921568627451" d="M 332.5 211 L 324.5 220 L 332.5 211 Z " /><path fill="rgb(0,0,0)" stroke="rgb(0,0,0)" stroke-width="1" opacity="0.7803921568627451" d="M 191.5 222 L 193.5 225 L 191.5 222 Z " /><path fill="rgb(0,0,0)" stroke="rgb(0,0,0)" stroke-width="1" opacity="0.7803921568627451" d="M 320.5 222 L 318.5 225 L 320.5 222 Z " /><path fill="rgb(0,0,0)" stroke="rgb(0,0,0)" stroke-width="1" opacity="0.7803921568627451" d="M 195.5 225 L 196.5 227 L 195.5 225 Z " /><path fill="rgb(0,0,0)" stroke="rgb(0,0,0)" stroke-width="1" opacity="0.7803921568627451" d="M 316.5 225 L 314.5 228 L 316.5 225 Z " /><path fill="rgb(0,0,0)" stroke="rgb(0,0,0)" stroke-width="1" opacity="0.7803921568627451" d="M 312.5 228 L 311.5 230 L 312.5 228 Z " /><path fill="rgb(0,0,0)" stroke="rgb(0,0,0)" stroke-width="1" opacity="0.7803921568627451" d="M 204.5 231 L 205.5 233 L 204.5 231 Z " /><path fill="rgb(0,0,0)" stroke="rgb(0,0,0)" stroke-width="1" opacity="0.7803921568627451" d="M 307.5 231 L 306.5 233 L 307.5 231 Z " /><path fill="rgb(0,0,0)" stroke="rgb(0,0,0)" stroke-width="1" opacity="0.7803921568627451" d="M 234.5 243 L 237 243.5 L 234.5 244 L 234.5 243 Z " /><path fill="rgb(0,0,0)" stroke="rgb(0,0,0)" stroke-width="1" opacity="0.7803921568627451" d="M 275.5 243 L 278 243.5 L 275.5 244 L 275.5 243 Z " /><path fill="rgb(0,0,0)" stroke="rgb(0,0,0)" stroke-width="1" opacity="0.7803921568627451" d="M 239.5 244 L 243 244.5 L 239.5 245 L 239.5 244 Z " /><path fill="rgb(0,0,0)" stroke="rgb(0,0,0)" stroke-width="1" opacity="0.7803921568627451" d="M 269.5 244 L 273 244.5 L 269.5 245 L 269.5 244 Z " /><path fill="rgb(0,0,0)" stroke="rgb(0,0,0)" stroke-width="1" opacity="0.7803921568627451" d="M 248.5 245 L 264 245.5 L 248.5 246 L 248.5 245 Z " /><path fill="rgb(0,0,0)" stroke="rgb(0,0,0)" stroke-width="1" opacity="0.7803921568627451" d="M 223.5 266 L 289 266.5 L 223.5 267 L 223.5 266 Z " /><path fill="rgb(0,0,0)" stroke="rgb(0,0,0)" stroke-width="1" opacity="0.7803921568627451" d="M 212.5 267 L 217 267.5 L 212.5 268 L 212.5 267 Z " /><path fill="rgb(0,0,0)" stroke="rgb(0,0,0)" stroke-width="1" opacity="0.7803921568627451" d="M 295.5 267 L 300 267.5 L 295.5 268 L 295.5 267 Z " /><path fill="rgb(0,0,0)" stroke="rgb(0,0,0)" stroke-width="1" opacity="0.7803921568627451" d="M 205.5 268 L 208 268.5 L 205.5 269 L 205.5 268 Z " /><path fill="rgb(0,0,0)" stroke="rgb(0,0,0)" stroke-width="1" opacity="0.7803921568627451" d="M 304.5 268 L 308 268.5 L 304.5 269 L 304.5 268 Z " /><path fill="rgb(0,0,0)" stroke="rgb(0,0,0)" stroke-width="1" opacity="0.7803921568627451" d="M 199.5 269 L 202 269.5 L 199.5 270 L 199.5 269 Z " /><path fill="rgb(0,0,0)" stroke="rgb(0,0,0)" stroke-width="1" opacity="0.7803921568627451" d="M 150.5 285 L 152 285.5 L 149.5 287 L 150.5 285 Z " /><path fill="rgb(0,0,0)" stroke="rgb(0,0,0)" stroke-width="1" opacity="0.7803921568627451" d="M 369.5 289 L 370.5 291 L 369.5 289 Z " /><path fill="rgb(0,0,0)" stroke="rgb(0,0,0)" stroke-width="1" opacity="0.7803921568627451" d="M 137.5 292 L 136.5 294 L 137.5 292 Z " /><path fill="rgb(0,0,0)" stroke="rgb(0,0,0)" stroke-width="1" opacity="0.7803921568627451" d="M 376.5 293 L 377.5 295 L 376.5 293 Z " /><path fill="rgb(0,0,0)" stroke="rgb(0,0,0)" stroke-width="1" opacity="0.7803921568627451" d="M 132.5 295 L 131.5 297 L 132.5 295 Z " /><path fill="rgb(0,0,0)" stroke="rgb(0,0,0)" stroke-width="1" opacity="0.7803921568627451" d="M 129.5 297 L 128.5 299 L 129.5 297 Z " /><path fill="rgb(0,0,0)" stroke="rgb(0,0,0)" stroke-width="1" opacity="0.7803921568627451" d="M 384.5 298 L 385.5 300 L 384.5 298 Z " /><path fill="rgb(0,0,0)" stroke="rgb(0,0,0)" stroke-width="1" opacity="0.7803921568627451" d="M 126.5 299 L 125.5 301 L 126.5 299 Z " /><path fill="rgb(0,0,0)" stroke="rgb(0,0,0)" stroke-width="1" opacity="0.7803921568627451" d="M 123.5 301 L 122.5 303 L 123.5 301 Z " /><path fill="rgb(0,0,0)" stroke="rgb(0,0,0)" stroke-width="1" opacity="0.7803921568627451" d="M 388.5 301 L 389.5 303 L 388.5 301 Z " /><path fill="rgb(0,0,0)" stroke="rgb(0,0,0)" stroke-width="1" opacity="0.7803921568627451" d="M 391.5 303 L 392.5 305 L 391.5 303 Z " /><path fill="rgb(0,0,0)" stroke="rgb(0,0,0)" stroke-width="1" opacity="0.7803921568627451" d="M 119.5 304 L 118.5 306 L 119.5 304 Z " /><path fill="rgb(0,0,0)" stroke="rgb(0,0,0)" stroke-width="1" opacity="0.7803921568627451" d="M 395.5 306 L 397.5 309 L 395.5 306 Z " /><path fill="rgb(0,0,0)" stroke="rgb(0,0,0)" stroke-width="1" opacity="0.7803921568627451" d="M 115.5 307 L 114.5 309 L 115.5 307 Z " /><path fill="rgb(0,0,0)" stroke="rgb(0,0,0)" stroke-width="1" opacity="0.7803921568627451" d="M 111.5 310 L 107.5 315 L 111.5 310 Z " /><path fill="rgb(0,0,0)" stroke="rgb(0,0,0)" stroke-width="1" opacity="0.7803921568627451" d="M 400.5 310 L 403.5 314 L 400.5 310 Z " /><path fill="rgb(0,0,0)" stroke="rgb(0,0,0)" stroke-width="1" opacity="0.7803921568627451" d="M 407.5 316 L 421.5 331 L 407.5 316 Z " /><path fill="rgb(0,0,0)" stroke="rgb(0,0,0)" stroke-width="1" opacity="0.7803921568627451" d="M 103.5 317 L 92.5 329 L 103.5 317 Z " /><path fill="rgb(0,0,0)" stroke="rgb(0,0,0)" stroke-width="1" opacity="0.7803921568627451" d="M 88.5 333 L 85.5 337 L 88.5 333 Z " /><path fill="rgb(0,0,0)" stroke="rgb(0,0,0)" stroke-width="1" opacity="0.7803921568627451" d="M 424.5 334 L 427.5 338 L 424.5 334 Z " /><path fill="rgb(0,0,0)" stroke="rgb(0,0,0)" stroke-width="1" opacity="0.7803921568627451" d="M 83.5 339 L 81.5 342 L 83.5 339 Z " /><path fill="rgb(0,0,0)" stroke="rgb(0,0,0)" stroke-width="1" opacity="0.7803921568627451" d="M 428.5 339 L 430.5 342 L 428.5 339 Z " /><path fill="rgb(0,0,0)" stroke="rgb(0,0,0)" stroke-width="1" opacity="0.7803921568627451" d="M 80.5 343 L 78.5 346 L 80.5 343 Z " /><path fill="rgb(0,0,0)" stroke="rgb(0,0,0)" stroke-width="1" opacity="0.7803921568627451" d="M 432.5 344 L 433.5 346 L 432.5 344 Z " /><path fill="rgb(0,0,0)" stroke="rgb(0,0,0)" stroke-width="1" opacity="0.7803921568627451" d="M 77.5 347 L 76.5 349 L 77.5 347 Z " /><path fill="rgb(0,0,0)" stroke="rgb(0,0,0)" stroke-width="1" opacity="0.7803921568627451" d="M 435.5 348 L 436.5 350 L 435.5 348 Z " /><path fill="rgb(0,0,0)" stroke="rgb(0,0,0)" stroke-width="1" opacity="0.7803921568627451" d="M 74.5 351 L 73.5 353 L 74.5 351 Z " /><path fill="rgb(0,0,0)" stroke="rgb(0,0,0)" stroke-width="1" opacity="0.7803921568627451" d="M 437.5 351 L 438.5 353 L 437.5 351 Z " /><path fill="rgb(0,0,0)" stroke="rgb(0,0,0)" stroke-width="1" opacity="0.7803921568627451" d="M 439.5 354 L 440.5 356 L 439.5 354 Z " /><path fill="rgb(0,0,0)" stroke="rgb(0,0,0)" stroke-width="1" opacity="0.7803921568627451" d="M 71.5 356 L 70.5 358 L 71.5 356 Z " /><path fill="rgb(0,0,0)" stroke="rgb(0,0,0)" stroke-width="1" opacity="0.7803921568627451" d="M 69.5 359 L 68.5 361 L 69.5 359 Z " /><path fill="rgb(0,0,0)" stroke="rgb(0,0,0)" stroke-width="1" opacity="0.7803921568627451" d="M 445.5 364 L 446.5 366 L 445.5 364 Z " /><path fill="rgb(0,0,0)" stroke="rgb(0,0,0)" stroke-width="1" opacity="0.7803921568627451" d="M 65.5 366 L 64.5 368 L 65.5 366 Z " /><path fill="rgb(0,0,0)" stroke="rgb(0,0,0)" stroke-width="1" opacity="0.7803921568627451" d="M 44.5 423 L 45 425.5 L 44 425.5 L 44.5 423 Z " /><path fill="rgb(0,0,0)" stroke="rgb(0,0,0)" stroke-width="1" opacity="0.7803921568627451" d="M 468.5 428 L 469 430.5 L 468 430.5 L 468.5 428 Z " /><path fill="rgb(0,0,0)" stroke="rgb(0,0,0)" stroke-width="1" opacity="0.7803921568627451" d="M 42.5 435 L 43 438.5 L 42 438.5 L 42.5 435 Z " /><path fill="rgb(0,0,0)" stroke="rgb(0,0,0)" stroke-width="1" opacity="0.7803921568627451" d="M 469.5 435 L 470 438.5 L 469 438.5 L 469.5 435 Z " /><path fill="rgb(0,0,0)" stroke="rgb(0,0,0)" stroke-width="1" opacity="0.7803921568627451" d="M 41.5 445 L 42 453.5 L 41 453.5 L 41.5 445 Z " /><path fill="rgb(0,0,0)" stroke="rgb(0,0,0)" stroke-width="1" opacity="0.7803921568627451" d="M 470.5 445 L 471 453.5 L 470 453.5 L 470.5 445 Z " /><path fill="rgb(0,0,0)" stroke="rgb(0,0,0)" stroke-width="1" opacity="0.7803921568627451" d="M 470.5 461 L 471 463.5 L 470 463.5 L 470.5 461 Z " /><path fill="rgb(0,0,0)" stroke="rgb(0,0,0)" stroke-width="1" opacity="0.7803921568627451" d="M 469.5 465 L 465.5 470 L 469.5 465 Z " /><path fill="rgb(0,0,0)" stroke="rgb(0,0,0)" stroke-width="1" opacity="0.7803921568627451" d="M 43.5 467 L 44.5 469 L 43.5 467 Z " /><path fill="rgb(0,0,0)" stroke="rgb(0,0,0)" stroke-width="1" opacity="0" d="M 0 0 L 512 0 L 512 512 L 0 512 L 0 0 Z M 246 41 L 226 45 L 211 51 L 190 65 Q 172 80 162 102 L 155 124 L 154 143 L 153 144 L 154 145 L 155 164 L 160 181 Q 167 198 179 212 Q 194 228 216 238 L 235 244 L 248 245 L 249 246 L 273 245 L 292 240 Q 311 233 325 220 Q 339 206 349 188 L 357 164 L 358 145 L 359 144 L 358 143 L 357 124 L 352 107 Q 346 90 335 78 Q 319 58 295 48 L 279 43 L 268 42 L 267 41 L 246 41 Z M 224 266 L 223 267 L 213 267 L 212 268 L 195 270 L 160 281 Q 127 295 104 317 Q 75 343 58 380 L 48 407 L 44 424 L 43 435 L 42 436 L 42 445 L 41 446 L 41 464 L 43 468 L 49 471 L 464 471 L 466 470 L 471 464 L 471 446 L 470 445 L 469 429 L 464 407 L 459 392 Q 445 356 422 331 Q 388 292 334 274 L 308 268 L 290 267 L 289 266 L 224 266 Z " /><path fill="rgb(0,0,0)" stroke="rgb(0,0,0)" stroke-width="1" opacity="1" d="M 250.5 41 L 270.5 42 L 293.5 48 Q 319.7 58.8 336 79.5 Q 347.7 93.8 354 113.5 L 358 133.5 L 358 152.5 L 355 169.5 Q 351 184 344 195.5 Q 335 211 321.5 222 Q 305.9 235.4 283.5 242 L 268.5 245 L 243.5 245 L 228.5 242 L 206.5 233 Q 189.3 223.3 177 208.5 Q 163.7 192.3 157 169.5 L 154 153.5 L 154 133.5 L 158 113.5 L 166 94.5 Q 175.9 76.4 191.5 64 Q 203.1 54.1 218.5 48 L 235.5 43 L 249.5 42 L 250.5 41 Z " /><path fill="rgb(0,0,0)" stroke="rgb(0,0,0)" stroke-width="1" opacity="1" d="M 217.5 267 L 294.5 267 L 328.5 273 Q 388.4 291.1 424 333.5 Q 446 358.5 459 392.5 L 468 425.5 L 469 438.5 L 470 439.5 L 471 460.5 L 470 464.5 L 464.5 470 L 461.5 471 L 50.5 471 L 43 466.5 Q 40 462.5 41 454.5 L 42 453.5 L 42 439.5 L 43 438.5 L 45 420.5 Q 50 397.5 59 378.5 Q 76.8 340.8 106.5 315 Q 129.8 294.3 160.5 281 L 196.5 270 L 201.5 270 L 208.5 268 L 216.5 268 L 217.5 267 Z " /></svg>