<?xml version="1.0" standalone="no"?>
<!DOCTYPE svg PUBLIC "-//W3C//DTD SVG 20010904//EN"
 "http://www.w3.org/TR/2001/REC-SVG-20010904/DTD/svg10.dtd">
<svg version="1.0" xmlns="http://www.w3.org/2000/svg"
 width="24.000000pt" height="24.000000pt" viewBox="0 0 24.000000 24.000000"
 preserveAspectRatio="xMidYMid meet">

<g transform="translate(0.000000,24.000000) scale(0.100000,-0.100000)"
fill="#000000" stroke="none">
<path d="M32 208 c-7 -7 -12 -35 -12 -64 0 -49 3 -55 42 -88 23 -20 49 -36 58
-36 9 0 35 16 58 36 39 33 42 39 42 88 0 29 -5 57 -12 64 -16 16 -160 16 -176
0z m176 -58 c3 -54 2 -57 -37 -88 -22 -18 -45 -32 -51 -32 -7 0 -30 14 -51 31
-36 29 -39 34 -39 83 0 29 3 56 7 60 4 4 43 5 88 4 l80 -3 3 -55z"/>
<path d="M108 183 c6 -2 18 -2 25 0 6 3 1 5 -13 5 -14 0 -19 -2 -12 -5z"/>
</g>
</svg>
