<svg width="24" height="24" version="1.1" xmlns="http://www.w3.org/2000/svg" desc="Created with imagetracer.js version 1.2.6" ><path fill="rgb(0,0,0)" stroke="rgb(0,0,0)" stroke-width="1" opacity="0.6509803921568628" d="M 10.5 2 L 15.5 3 L 22 8.5 L 22 19.5 L 19.5 22 L 4.5 22 L 2 19.5 L 2 8.5 L 3.5 7 L 10.5 2 Z M 12 3 L 6 7 L 3 10 L 3 20 L 5 21 L 20 21 L 21 20 L 21 10 L 12 3 Z " /><path fill="rgb(0,0,0)" stroke="rgb(0,0,0)" stroke-width="1" opacity="0.6509803921568628" d="M 9 17 L 15 17 L 15 19 L 9 19 L 9 17 Z " /><path fill="rgb(0,0,0)" stroke="rgb(0,0,0)" stroke-width="1" opacity="0" d="M 0 0 L 24 0 L 24 24 L 0 24 L 0 0 Z M 11 2 L 9 3 L 6 7 L 12 3 L 18 7 L 19 7 Q 17 2 11 2 Z M 4 7 L 2 9 L 3 20 L 3 10 L 5 8 L 4 7 Z M 20 7 L 21 10 L 22 20 L 22 9 L 20 7 Z M 9 17 L 9 19 L 15 19 L 15 17 L 9 17 Z M 5 21 L 5 22 L 20 22 L 5 21 Z " /></svg>