<svg width="512" height="512" version="1.1" xmlns="http://www.w3.org/2000/svg" desc="Created with imagetracer.js version 1.2.6" ><path fill="rgb(0,0,0)" stroke="rgb(0,0,0)" stroke-width="1" opacity="0.9490196078431372" d="M 245.5 41 L 273.5 42 L 296.5 49 Q 319.2 58.8 334 76.5 Q 348.1 92.4 355 115.5 L 358 130.5 L 358 156.5 Q 350.9 196.9 325.5 219 Q 312 231.5 293.5 239 L 271.5 245 L 249.5 246 L 248.5 245 L 234.5 244 L 213.5 237 Q 193.9 227.6 180 212.5 Q 165.5 197 158 174.5 L 154 156.5 L 154 130.5 L 157 115.5 L 164 97.5 Q 173.5 79 188.5 66 Q 200.9 54.9 217.5 48 L 229.5 44 L 245.5 41 Z M 255 61 L 254 62 L 239 63 L 226 67 L 204 80 Q 192 90 184 104 L 177 121 L 174 136 L 174 151 L 179 173 Q 185 188 195 199 Q 213 219 246 225 L 267 225 L 277 223 Q 298 217 312 204 Q 325 192 332 175 L 336 163 L 337 152 L 338 151 L 338 136 L 335 121 Q 330 103 319 91 Q 306 75 287 67 L 269 62 Q 260 63 255 61 Z " /><path fill="rgb(0,0,0)" stroke="rgb(0,0,0)" stroke-width="1" opacity="0.9490196078431372" d="M 224.5 266 L 287.5 266 L 288.5 267 L 298.5 267 L 299.5 268 L 312.5 269 L 336.5 275 Q 388.2 292.8 421 329.5 Q 445 355.5 459 391.5 L 468 423.5 L 469 435.5 L 470 436.5 L 470 445.5 L 471 446.5 L 471 462.5 L 466.5 469 L 462.5 471 L 48.5 471 L 43 467.5 L 41 463.5 L 41 446.5 L 42 445.5 L 42 436.5 L 47 410.5 L 59 377.5 Q 75 344 100.5 320 L 103.5 318 Q 126.9 294.9 159.5 281 L 194.5 270 L 212.5 268 L 213.5 267 L 223.5 267 L 224.5 266 Z M 219 287 L 191 292 L 163 302 Q 139 313 121 329 Q 96 350 80 381 L 68 411 L 62 440 L 62 451 L 63 451 L 450 451 L 450 440 L 449 439 L 448 427 L 438 394 Q 426 366 408 346 Q 377 309 326 293 L 294 287 L 219 287 Z " /><path fill="rgb(0,0,0)" stroke="rgb(0,0,0)" stroke-width="1" opacity="0" d="M 0 0 L 512 0 L 512 512 L 0 512 L 0 0 Z M 246 41 L 230 44 L 218 48 Q 201 55 189 66 Q 173 79 164 98 L 157 116 L 154 131 L 154 157 L 158 175 Q 166 197 180 213 Q 194 228 214 237 L 235 244 L 249 245 L 250 246 L 272 245 L 294 239 Q 312 231 326 219 Q 351 197 358 157 L 358 131 L 355 116 Q 348 92 334 77 Q 319 59 297 49 L 274 42 L 246 41 Z M 225 266 L 224 267 L 214 267 L 213 268 L 195 270 L 160 281 Q 127 295 104 318 L 101 320 Q 75 344 59 378 L 47 411 L 42 437 L 42 446 L 41 447 L 41 464 L 43 468 L 49 471 L 463 471 L 467 469 L 471 463 L 471 447 L 470 446 L 470 437 L 469 436 L 468 424 L 459 392 Q 445 356 421 330 Q 388 293 337 275 L 313 269 L 300 268 L 299 267 L 289 267 L 288 266 L 225 266 Z " /><path fill="rgb(0,0,0)" stroke="rgb(0,0,0)" stroke-width="1" opacity="0" d="M 254.5 61 Q 259.6 63.4 268.5 62 L 286.5 67 Q 306.3 75.3 319 90.5 Q 329.6 102.9 335 120.5 L 338 135.5 L 338 150.5 L 337 151.5 L 336 162.5 L 332 174.5 Q 324.6 192.1 311.5 204 Q 297.6 217.1 276.5 223 L 266.5 225 L 245.5 225 Q 212.8 219.2 195 198.5 Q 185 187.5 179 172.5 L 174 150.5 L 174 135.5 L 177 120.5 L 184 103.5 Q 191.8 89.8 203.5 80 L 225.5 67 L 238.5 63 L 253.5 62 L 254.5 61 Z " /><path fill="rgb(0,0,0)" stroke="rgb(0,0,0)" stroke-width="1" opacity="0" d="M 218.5 287 L 293.5 287 L 325.5 293 Q 376.9 309.1 408 345.5 Q 426.5 366 438 393.5 L 448 426.5 L 449 438.5 L 450 439.5 L 450 451 L 62.5 451 L 62 450.5 L 62 439.5 L 68 410.5 L 80 380.5 Q 96 350.5 120.5 329 Q 138.9 312.9 162.5 302 L 190.5 292 L 218.5 287 Z " /></svg>